<svg width="24" height="24" viewBox="0 0 24 24" fill="none" xmlns="http://www.w3.org/2000/svg" class="icon-md">
  <path d="M3.06957 10.8763C3.62331 6.43564 7.40967 3 12 3C14.2824 3 16.4028 3.85067 18.0118 5.25439V4C18.0118 3.44772 18.4595 3 19.0118 3C19.5641 3 20.0118 3.44772 20.0118 4V8C20.0118 8.55228 19.5641 9 19.0118 9H15C14.4477 9 14 8.55228 14 8C14 7.44772 14.4477 7 15 7H16.9571C15.6757 5.76379 13.9101 5 12 5C8.43108 5 5.48466 7.67174 5.0542 11.1237C4.98586 11.6718 4.48619 12.0607 3.93815 11.9923C3.39011 11.924 3.00123 11.4243 3.06957 10.8763ZM20.0618 12.0077C20.6099 12.076 20.9988 12.5757 20.9304 13.1237C20.3767 17.5644 16.5903 21 12 21C9.72322 21 7.60762 20.1535 5.99999 18.7559V20C5.99999 20.5523 5.55228 21 4.99999 21C4.44771 21 3.99999 20.5523 3.99999 20V16C3.99999 15.4477 4.44771 15 4.99999 15H8.99999C9.55228 15 9.99999 15.4477 9.99999 16C9.99999 16.5523 9.55228 17 8.99999 17H7.04285C8.32433 18.2362 10.0899 19 12 19C15.5689 19 18.5153 16.3283 18.9458 12.8763C19.0141 12.3282 19.5138 11.9393 20.0618 12.0077Z" fill="currentColor"></path>
</svg>
